<svg xmlns="http://www.w3.org/2000/svg" width="50" height="50"><path d="M6.25 3.125A6.258 6.258 0 0 0 0 9.375v31.25a6.258 6.258 0 0 0 6.25 6.25h37.5a6.258 6.258 0 0 0 6.25-6.25V9.375a6.258 6.258 0 0 0-6.25-6.25ZM17.09 17.09a2.332 2.332 0 0 1 3.308 0l4.594 4.59 4.586-4.59a2.336 2.336 0 0 1 3.313 0c.906.918.918 2.402 0 3.308l-4.59 4.594 4.59 4.586a2.336 2.336 0 0 1 0 3.313c-.918.906-2.403.918-3.313 0l-4.59-4.59-4.59 4.59a2.332 2.332 0 0 1-3.308 0c-.91-.918-.918-2.403 0-3.313l4.59-4.59-4.59-4.59a2.332 2.332 0 0 1 0-3.308Zm0 0" style="stroke:none;fill-rule:nonzero;fill:#d2570a;fill-opacity:1"/></svg>