<svg xmlns="http://www.w3.org/2000/svg" width="50" height="55.652">
    <path d="m23.977 14.164-7.301 3.063V4.695l-5.95 20.684 5.95-2.629v14.164ZM14.934 3.652l-.141.512-1.652 5.75c-4.38 1.684-7.489 5.934-7.489 10.902 0 5.684 3.727 10.422 9.067 11.465v5.828C6.25 36.97 0 29.61 0 20.824c0-8.75 6.5-16 14.934-17.172Zm33.847 48.61c-1.215 1.215-2.508 1.336-3.105 1.14-.59-.195-2.95-2.164-6.567-4.828-3.62-2.672-3.652-3.879-4.675-6.16-1.02-2.273-3.305-4.633-6.25-5.695l-1.055-1.598c-2.684 1.836-5.758 2.922-8.836 3.117l.23-.715 1.727-5.382c5.055-1.293 8.793-5.868 8.793-11.325 0-5.925-4.172-11.097-10.434-11.64V3.512c9.043.554 16.172 8.097 16.172 17.312 0 3.653-1.215 7.035-3.152 9.828l1.59 1.043c1.062 2.946 3.422 5.22 5.695 6.239 2.27 1.023 3.5 1.054 6.172 4.675 2.676 3.61 4.64 5.965 4.84 6.555.195.586.074 1.879-1.145 3.098Zm-1.074-1.946c0-.48-.39-.87-.871-.87a.87.87 0 1 0 .871.871Zm0 0"
          style="stroke:none;fill-rule:nonzero;fill:#d2570a;fill-opacity:1"/>
</svg>